<?xml version="1.0" encoding="utf-8"?>
<!-- Generator: Adobe Illustrator 19.2.1, SVG Export Plug-In . SVG Version: 6.00 Build 0)  -->
<svg version="1.1" id="Layer_1" xmlns="http://www.w3.org/2000/svg" xmlns:xlink="http://www.w3.org/1999/xlink" x="0px" y="0px"
	 width="512px" height="512px" viewBox="0 0 512 512" style="enable-background:new 0 0 512 512;" xml:space="preserve">
<style type="text/css">
	.st0{fill:#FFFFFF;}
</style>
<path class="st0" d="M281.3,92.4c-0.1,0.1-0.2,0.1-0.2,0.2c0,0,0,0-0.1,0.1C281.1,92.6,281.1,92.6,281.3,92.4z M282,93.1
	c-0.9,0-1.6,0.3-1.8,0.3c-18.3,16.1-26,33.6-43.4,52.2c-17.3,18.6-43.7,36.4-96.7,51.5l-31.1,42.3c-1.7,2.3-4.3,3.6-7.2,3.7
	l-50.8,0.5l-14.7-8.4l-2.6,120.3l14.6-8.5h57.3c2.7,0,5.2,1.2,6.9,3.3c13.5,16.4,20,32.2,37.9,40l200.6,62.2
	c12.5-0.5,22.4-2,28.6-5.6c5.3-3,8.9-7.5,11-16.7c-5.5-2.3-23.5-10-47.2-19.9c-13.5-5.7-27-11.3-37.2-15.6c-5.1-2.1-9.4-3.9-12.4-5
	c-1.5-0.6-2.7-1.1-3.4-1.3c-0.2-0.1-0.3-0.1-0.4-0.1c-0.2,0-0.3,0.1-1.9-0.7c-1-0.5-4.7-10.6-4.7-10.6c0,0,5.6-6.1,6.5-6.3
	c2.5-0.6,3-0.3,3.5-0.2c0.2,0,0.3,0.1,0.4,0.1c0.1,0,0.3,0,0.6,0.1c0.9,0.1,2.3,0.2,4.2,0.4c3.7,0.3,9.1,0.8,15.7,1.4
	c13.1,1.1,30.7,2.6,48.4,4.1c17.7,1.5,35.5,3,48.9,4c6.7,0.5,12.4,1,16.4,1.3c2,0.2,3.6,0.3,4.7,0.4c0.4,0,0.7,0.1,1,0.1
	c8-0.6,12.1-2.9,14.4-5.4c2.3-2.5,3.3-5.6,3.1-9.5c-0.4-7.7-6.9-16.8-13.2-18.8l-125-16.5c-4.9-0.7-8.4-5.2-7.7-10.1
	c0.5-4.2,3.9-7.4,8.1-7.8c0,0,34.4-3.1,69.2-6.4c17.4-1.6,35-3.3,48.4-4.6c6.7-0.7,12.4-1.2,16.4-1.7c2-0.2,3.7-0.4,4.8-0.5
	c0.5-0.1,1.1-0.2,1.5-0.3c10.9-3.1,16.2-7.2,18.2-10.1c2-3,2-5.1,0.5-8.7c-2.9-7.1-15.3-15.9-23.3-16.4l-140.4-3.7
	c-5-0.1-8.9-4.3-8.8-9.3c0.1-4.2,3.1-7.8,7.2-8.6c0,0,30.5-6.2,61.9-12.6c15.7-3.2,31.6-6.4,44-8.9c12.4-2.5,20.9-4.2,23.4-4.6
	c9.5-1.7,13.9-5.3,16.1-9.2c2.3-3.9,2.7-8.9,1-14.2c-2.9-9.3-11.5-17.9-23.2-18.1c-1.7,0-3.4,0.1-5.2,0.4c-0.1,0-0.1,0-0.2,0
	l-149,23.8c-7.5,10.4-14.5,16-24,23.1c-2,57.3-12.4,85.9-27.3,101c-15.3,15.5-34.4,14.5-40.3,16l-4.4-17.5c12.1-3,22-1.1,31.9-11.2
	c9.9-10.1,20.8-34.8,22.3-93.2c0.1-2.8,1.4-5.3,3.6-7c12.4-9.3,17.2-12.3,25.1-24l35.5-78.8c-1.1-8-5-11.7-9.6-14
	C286.6,93.7,283.9,93.1,282,93.1L282,93.1z"/>
<g>
	<g>
		<path d="M-0.1-0.5c171.1,0,342.2,0,513.3,0c0,170.8,0,341.7,0,512.5c-171.1,0-342.2,0-513.3,0C-0.1,341.2-0.1,170.3-0.1-0.5z
			 M226.2,63.8c-1.6-0.6-3.3-1.4-5.1-2c-12.8-4.6-21.7-0.9-26.7,11.3c-1.2,2.8-2.2,5.8-2.6,8.8c-1.2,8.7-2.7,17.5-2.8,26.3
			c-0.4,28.8-0.8,57.5,4.7,86.1c6.5,33.6,13.1,67.4,5.9,101.8c-2.1,10.2-4.3,20.4-6.4,30.6c-0.8,3.6-3.1,5.5-6.9,4.7
			c-6.7-1.4-14.3-1.7-19.9-5c-14-8.2-27-17.8-40.5-26.8c-3.7-2.5-7.5-5.1-11.6-6.6c-15.2-5.6-31-7.6-47.3-5.9
			c-5.7,0.6-9.9,3.1-12.9,7.7c-6.6,10.2-3.6,23.6,7.1,29.8c4,2.3,8.4,4.4,12.8,5.5c9,2.3,16,7,22,13.5c5.5,5.9,11,11.9,17.2,17.2
			c8.9,7.5,15,16.4,18.6,27.2c5.4,16.4,16.9,27.9,33.3,34.8c15.1,6.4,29.2,14.3,41.7,24.8c2.7,2.3,5.8,4.1,8.7,6.1
			c16.9,11.6,35.1,15,55.3,9.3c16.8-4.8,33.9-6.9,51.5-5.8c10.9,0.7,22,0.7,32.8-0.5c20-2.2,34.1-12.1,39.5-31.3
			c1.2-4.3,2.3-8.8,2.6-13.2c1-14.7,1.5-29.5,2.3-44.2c0.5-8.3-0.4-17.1,2.4-24.6c4.3-11.5,5.8-23,6.6-34.9
			c0.9-14.4,5.2-27.6,13.7-40c6.9-10,12.4-21,16.8-32.2c9.8-25,9.1-51.3,7.9-77.4c-0.3-7.5-5.5-13.4-13.2-15.4
			c-5.4-1.4-5.7-4.2-6.2-8.5c-1-9.8-1.9-19.7-4.5-29.2c-1.9-7.3-8.2-11.8-16.4-11.9c-7.9-0.1-13,4.4-16,11c-3.3,7.3-6.7,14.5-9.2,22
			c-12,36.7-31,70.5-47.5,105.4c-6.4,13.6-13.5,13.9-21.1,1c-7-11.8-12.4-24.6-17.7-37.3c-2.6-6.2-4.3-13.2-4.5-19.8
			c-0.5-13.5-3-26.4-9.1-38.7c-1.6-3.3-2.2-7.2-2.4-10.9c-0.6-9.1-0.1-18.4-1.4-27.4c-2.2-15.5-5.8-30.9-13.9-44.8
			c-5.8-10-19.7-11.8-28-3.6C232.4,54.5,229.7,59.2,226.2,63.8z"/>
		<path class="st0" d="M226.2,63.8c3.5-4.7,6.2-9.3,9.9-13c8.3-8.2,22.2-6.3,28,3.6c8.1,13.9,11.7,29.2,13.9,44.8
			c1.3,9,0.7,18.3,1.4,27.4c0.3,3.7,0.8,7.6,2.4,10.9c6.1,12.3,8.6,25.1,9.1,38.7c0.3,6.7,1.9,13.6,4.5,19.8
			c5.3,12.7,10.7,25.4,17.7,37.3c7.6,12.9,14.7,12.5,21.1-1c16.5-34.9,35.5-68.7,47.5-105.4c2.5-7.5,5.9-14.8,9.2-22
			c3-6.6,8.2-11.1,16-11c8.3,0.1,14.5,4.7,16.4,11.9c2.5,9.5,3.4,19.4,4.5,29.2c0.4,4.3,0.7,7.1,6.2,8.5c7.7,2,12.9,7.9,13.2,15.4
			c1.2,26.1,1.9,52.4-7.9,77.4c-4.4,11.2-10,22.2-16.8,32.2c-8.5,12.4-12.8,25.6-13.7,40c-0.8,11.9-2.3,23.4-6.6,34.9
			c-2.8,7.5-2,16.3-2.4,24.6c-0.9,14.7-1.3,29.5-2.3,44.2c-0.3,4.4-1.4,8.9-2.6,13.2c-5.5,19.2-19.5,29.1-39.5,31.3
			c-10.8,1.2-21.9,1.2-32.8,0.5c-17.6-1.1-34.8,1-51.5,5.8c-20.2,5.8-38.4,2.3-55.3-9.3c-2.9-2-6-3.8-8.7-6.1
			c-12.5-10.5-26.6-18.3-41.7-24.8c-16.4-7-27.9-18.4-33.3-34.8c-3.5-10.8-9.7-19.7-18.6-27.2c-6.2-5.2-11.7-11.2-17.2-17.2
			c-6-6.5-13.1-11.2-22-13.5c-4.5-1.1-8.9-3.2-12.8-5.5c-10.7-6.2-13.7-19.6-7.1-29.8c3-4.6,7.3-7.1,12.9-7.7
			c16.3-1.7,32.1,0.3,47.3,5.9c4.1,1.5,7.9,4.1,11.6,6.6c13.5,8.9,26.5,18.6,40.5,26.8c5.6,3.3,13.2,3.6,19.9,5
			c3.8,0.8,6.1-1.1,6.9-4.7c2.2-10.2,4.3-20.4,6.4-30.6c7.2-34.4,0.5-68.2-5.9-101.8c-5.5-28.6-5.1-57.3-4.7-86.1
			c0.1-8.8,1.6-17.5,2.8-26.3c0.4-3,1.4-6,2.6-8.8c5-12.2,13.9-15.9,26.7-11.3C222.8,62.4,224.5,63.2,226.2,63.8z M366.7,262.3
			c2-1.8,4.4-3.3,5.7-5.5c2.6-4.2,4.6-8.6,6.8-13c6.8-13.4,13-27.2,20.6-40.3c5.3-9.2,8.5-18.7,10.3-28.9c1.2-7,3.6-13.9,5.8-20.7
			c1.4-4.3,4.3-8.4,4.8-12.8c1.4-12,0.4-23.8-6-34.6c-4.2-7.1-9.9-7.3-14.4-0.5c-3.1,4.8-5.5,10.3-7.4,15.7
			c-9.3,26.9-19.9,53.3-34.2,78.1c-6.1,10.6-10.8,21.7-15.2,33c-2,5.2-5.5,10.3-9.5,14.4c-6.4,6.5-15.8,7-22.3,0.6
			c-4.9-4.9-8.7-11.2-11.5-17.5c-6.2-13.8-11.5-28-17-42.2c-1.4-3.5-2.5-7.1-2.8-10.8c-1.5-14.9-2.8-29.8-9.4-43.6
			c-0.7-1.4-0.8-3.1-0.7-4.7c0.9-20.7-2.2-40.9-8.1-60.8c-1.1-3.5-3-7.1-5.5-9.9c-6-6.6-12.3-5.9-16.7,1.7
			c-3.6,6.4-5.6,12.8-4.1,20.6c4.4,22.4-0.2,46,9.2,67.8c1,2.4,1.1,5.3,1.3,8c1.1,18.9,2.4,37.7,10.2,55.5
			c2.2,5.1,3.7,10.6,5.7,15.8c2.7,6.8,2.7,15.1,12.4,18.5c-10.4,0.8-19.5,1.5-29.2,2.3c2.1-1.2,3.8-2.6,5.8-3.3
			c5.2-1.8,7.1-4.7,5.2-9.9c-5-13.2-10.1-26.3-14.8-39.6c-1.7-4.7-3.5-9.8-3.2-14.5c1.4-19.3-2.4-37.6-9.8-55.4
			c-1-2.4-1.2-5.2-1-7.8c0.7-13,1.2-26-3.8-38.4c-3-7.5-7.6-10.5-14.3-10.1c-5.4,0.3-8.4,3-9.7,11.4c-1.7,11-2.8,22.1-3.4,33.3
			c-2.1,39.5,6.2,78.2,10.7,117.1c1.9,16.5,7.4,32.7,2.9,49.7c-1.8,6.6-2.4,13.5-3.1,20.3c-0.8,6.7-1,13.4-1.7,21.7
			c4.2-2.4,6.6-3.8,9.3-5.4c0.8,7.2-2.5,12.2-7.9,16.1c-12,8.8-31.6,9.1-44.9,0.7c-4.9-3.1-9.5-6.6-14.2-9.8
			c-10.9-7.5-21.2-15.9-32.9-22.1c-14.2-7.6-30.1-9.1-46.2-6.7c-4.7,0.7-8.6,2.8-9.7,7.8c-1.1,5.2,0.7,9.5,5.4,12.1
			c5.7,3.1,11.6,6,17.8,8.1c8.5,2.8,15.7,6.7,21,13.9c2.9,3.9,6.4,7.7,10.5,10.6c12,8.5,19.8,19.8,24.1,33.2
			c5.3,16.5,16.5,27.5,33,34.1c17.2,6.9,32.5,16.6,46.4,28.6c15.6,13.5,33.7,17.7,54.1,10.2c13-4.8,26.7-6.1,40.6-6.3
			c17-0.2,34-1.1,51-1.8c10-0.4,16.4-5.7,19.9-14.4c1.3-3.2,2.6-6.4,3.5-9.7c6.2-22.3,7.8-45,7.3-68c-0.1-6.3,0.7-13,2.8-19
			c3.2-9.2,5.3-18.3,4.7-28c-1-14.4,3.4-27.3,12.3-39c19.2-25.2,25.5-54.2,26.8-84.5c0.4-8.3-1.4-16.8-2.9-25.1
			c-0.4-2.1-3.5-5.3-5.3-5.2c-2.4,0.1-5.6,2.4-6.7,4.5c-2.3,4.5-3.6,9.4-5.1,14.2c-3.1,9.8-4.9,20.1-9.2,29.3
			c-8.9,18.9-19,37.1-28.7,55.7c-2.3,4.5-5,8.9-0.2,13.6C376.5,267.8,371.2,264.8,366.7,262.3z"/>
		<path d="M366.7,262.3c4.5,2.5,9.8,5.5,15.1,8.4c-4.8-4.7-2.2-9.2,0.2-13.6c9.6-18.5,19.8-36.8,28.7-55.7
			c4.3-9.2,6.2-19.5,9.2-29.3c1.5-4.8,2.8-9.8,5.1-14.2c1.1-2.2,4.4-4.4,6.7-4.5c1.8-0.1,4.9,3.1,5.3,5.2c1.5,8.3,3.3,16.7,2.9,25.1
			c-1.3,30.3-7.7,59.3-26.8,84.5c-8.9,11.7-13.3,24.6-12.3,39c0.7,9.7-1.5,18.8-4.7,28c-2.1,6-2.9,12.6-2.8,19
			c0.5,23-1.1,45.7-7.3,68c-0.9,3.3-2.2,6.5-3.5,9.7c-3.5,8.7-9.8,14-19.9,14.4c-17,0.7-34,1.6-51,1.8c-13.9,0.2-27.6,1.5-40.6,6.3
			c-20.4,7.5-38.5,3.2-54.1-10.2c-13.9-12-29.2-21.7-46.4-28.6c-16.5-6.6-27.7-17.6-33-34.1c-4.3-13.4-12-24.7-24.1-33.2
			c-4-2.9-7.6-6.6-10.5-10.6c-5.3-7.2-12.5-11.1-21-13.9c-6.2-2-12.1-4.9-17.8-8.1c-4.6-2.6-6.5-6.9-5.4-12.1c1.1-5,5-7.1,9.7-7.8
			c16.1-2.4,32-0.8,46.2,6.7c11.6,6.2,22,14.6,32.9,22.1c4.8,3.3,9.3,6.8,14.2,9.8c13.3,8.4,32.8,8.1,44.9-0.7
			c5.4-3.9,8.7-8.9,7.9-16.1c-2.7,1.6-5.1,3-9.3,5.4c0.6-8.3,0.9-15,1.7-21.7c0.8-6.8,1.3-13.7,3.1-20.3c4.6-16.9-1-33.1-2.9-49.7
			c-4.5-39-12.8-77.6-10.7-117.1c0.6-11.1,1.6-22.3,3.4-33.3c1.3-8.4,4.4-11.1,9.7-11.4c6.7-0.4,11.2,2.7,14.3,10.1
			c5.1,12.4,4.5,25.4,3.8,38.4c-0.1,2.6,0,5.4,1,7.8c7.4,17.8,11.2,36.1,9.8,55.4c-0.3,4.8,1.5,9.9,3.2,14.5
			c4.7,13.3,9.7,26.4,14.8,39.6c2,5.2,0,8.1-5.2,9.9c-2,0.7-3.7,2.1-5.8,3.3c9.7-0.8,18.8-1.5,29.2-2.3c-9.7-3.4-9.7-11.7-12.4-18.5
			c-2.1-5.2-3.5-10.7-5.7-15.8c-7.8-17.8-9-36.6-10.2-55.5c-0.2-2.7-0.2-5.6-1.3-8c-9.4-21.9-4.9-45.4-9.2-67.8
			c-1.5-7.8,0.5-14.2,4.1-20.6c4.4-7.6,10.7-8.3,16.7-1.7c2.5,2.8,4.4,6.4,5.5,9.9c6,19.8,9.1,40.1,8.1,60.8c-0.1,1.6,0,3.3,0.7,4.7
			c6.7,13.9,8,28.7,9.4,43.6c0.4,3.7,1.5,7.3,2.8,10.8c5.5,14.1,10.9,28.3,17,42.2c2.8,6.3,6.6,12.7,11.5,17.5
			c6.5,6.4,15.9,5.9,22.3-0.6c4-4.1,7.5-9.2,9.5-14.4c4.4-11.3,9-22.3,15.2-33c14.3-24.8,24.8-51.2,34.2-78.1
			c1.9-5.4,4.2-10.9,7.4-15.7c4.5-6.8,10.2-6.6,14.4,0.5c6.3,10.8,7.4,22.6,6,34.6c-0.5,4.4-3.4,8.5-4.8,12.8
			c-2.2,6.8-4.5,13.7-5.8,20.7c-1.8,10.2-5,19.7-10.3,28.9c-7.5,13.1-13.8,26.8-20.6,40.3c-2.2,4.4-4.2,8.9-6.8,13
			C371,259,368.6,260.5,366.7,262.3z M244.7,292.3c-0.2,0.4-0.5,0.7-0.7,1.1c2.8,2.4,5.5,5,8.5,7.2c14.5,10.6,31.3,16.4,48.7,21
			c11.9,3.2,22.4,8.5,30.8,17.3c1.4,1.4,3.1,2.6,5.7,4.7c-1.4-9.5-6.4-15.2-13.1-19c-7.9-4.5-16.3-8.1-24.8-11.5
			c-17.3-7-34.9-13.5-52.3-20.2C246.5,292.6,245.6,292.5,244.7,292.3z M298.8,426c18.7-22.3-1.8-72.8-32.8-79.9
			C288.3,368.7,302.7,393.7,298.8,426z"/>
		<path class="st0" d="M244.7,292.3c0.9,0.2,1.7,0.3,2.6,0.6c17.5,6.7,35,13.2,52.3,20.2c8.5,3.4,16.9,7.1,24.8,11.5
			c6.7,3.8,11.7,9.5,13.1,19c-2.6-2.1-4.3-3.2-5.7-4.7c-8.4-8.8-18.9-14.1-30.8-17.3c-17.4-4.6-34.2-10.5-48.7-21
			c-3-2.2-5.7-4.8-8.5-7.2C244.2,293,244.5,292.7,244.7,292.3z"/>
		<path class="st0" d="M298.8,426c3.9-32.3-10.5-57.3-32.8-79.9C297.1,353.3,317.6,403.8,298.8,426z"/>
	</g>
</g>
<path class="st0" d="M213.1,67c0,0,17,1,24.6-8.5s25.6-17.3,34.1,36s27.1,153.6,51.1,151.6S396.3,98.8,401.1,98s33.3-0.8,17.5,62.1
	s-1.3-16.8,7.5-11.2c8.8,5.7,23.8-4.6,16.5,52.2s-35.6,85.6-35.6,85.6s-16.3,118.9-15.5,141.1s-68.4,26.6-72.2,23.7
	s-88.5,30.9-129.3-24.7c0,0-43.5-4.8-60.6-54.6c-17.4-50.4-101.7-47-70.2-76.6c31.6-29.5,88.7,25.5,88.7,25.5s25.3,23.5,42.1,10.5
	c16.8-13,19-77.1,19-77.1S176.8,87,199.1,70S213.1,67,213.1,67z"/>
<g>
	<path d="M224.1,57.5c0,0,0.7,0.6,1.8,1.7c1.1,1.2,2.7,2.9,4.6,5.4c1.8,2.4,3.9,5.6,5.9,9.4c1,1.9,1.9,4.1,2.8,6.4
		c0.4,1.2,0.8,2.4,1.2,3.7c0.2,0.6,0.3,1.3,0.5,2l0.1,0.5l0.1,0.5l0.2,0.9c0.6,2.4,1.1,5.1,1.7,7.7c0.5,2.6,1.1,5.3,1.6,8.1
		c1,5.6,2.1,11.4,3.1,17.4c1,5.9,2,12.1,3.1,18.3c1.1,6.2,2.1,12.4,3.4,18.5c1.2,6.1,2.5,12.1,4.1,17.7l0.1,0.5l0.2,0.6l0.3,1.2
		c0.2,0.8,0.4,1.6,0.7,2.3c0.4,1.6,0.9,3.1,1.3,4.7c0.8,3.1,1.6,6.2,2.3,9.2c2.9,12.2,4.9,23.7,6,33.8c0.6,5,0.9,9.7,1.1,13.9
		c0.1,4.2,0.1,7.8-0.1,10.9c-0.2,3-0.6,5.4-1,7c-0.2,0.8-0.4,1.4-0.6,1.8c-0.2,0.4-0.3,0.6-0.3,0.6s-0.1-0.9-0.6-2.3
		c-0.5-1.5-1.3-3.6-2.5-6.2c-1.2-2.6-2.6-5.8-4.3-9.5c-1.7-3.6-3.6-7.8-5.6-12.2c-4.1-9-8.7-19.5-13.2-30.9
		c-1.1-2.9-2.3-5.7-3.4-8.7c-1.1-3-2.3-5.8-3.4-9c-2.4-6.7-4.1-13.6-5.5-20.4c-1.4-6.8-2.3-13.6-2.9-20.2c-0.6-6.7-1-13.2-1.1-19.5
		c-0.1-6.3,0-12.4,0.3-18.1c0.1-2.9,0.3-5.6,0.5-8.3c0.2-2.7,0.4-5.1,0.6-7.7l0.1-0.9l0-0.2c0,0,0-0.1,0-0.2l0-0.4
		c0-0.5,0.1-1.1,0.1-1.6c0.1-1.1,0-2.1,0.1-3.2c0-1,0-2.1,0-3.1c-0.1-1-0.1-2-0.2-2.9c-0.3-3.8-0.7-7.3-1.2-10.1
		c-0.5-2.8-0.9-5.1-1.3-6.7C224.3,58.3,224.1,57.5,224.1,57.5z"/>
</g>
<g>
	<path d="M434.6,138.2c0,0-0.3,0.6-0.9,1.6c-0.6,1-1.4,2.5-2.3,4.4c-0.9,1.9-1.8,4.1-2.6,6.7c-0.8,2.5-1.4,5.3-1.5,8.2
		c0,0.7-0.1,1.4,0,2.1c0,0.4,0,0.7,0,1.1l0,0.1c0,0,0-0.1,0,0l0,0l0,0.1l0,0.4l0,0.7c0.1,1.7,0.1,3.6,0.2,5.6
		c0.1,4,0.1,8.4-0.2,12.9c-0.4,9.1-1.6,18.8-4.1,28.6c-2.5,9.7-6.1,19.5-11.9,28.2c-2.9,4.3-6.3,8.3-10.3,11.5
		c-1.6,1.2-3.1,2.4-4.6,3.5c-1.3,1-2.7,2-4,3.1c-2.7,2.1-4.9,4-6.9,5.9c-2,1.8-3.6,3.6-4.8,5.2c-1.2,1.6-2.1,2.9-2.6,4
		c-0.2,0.5-0.4,0.9-0.5,1.2c-0.1,0.3-0.1,0.4-0.1,0.4s-0.1-0.1-0.3-0.4c-0.2-0.3-0.4-0.7-0.6-1.3c-0.4-1.2-0.8-3-0.8-5.4
		c0-2.4,0.4-5.3,1.2-8.4c0.9-3.1,2.1-6.6,3.9-10.1c0.8-1.8,1.9-3.6,3-5.4c1.1-1.9,2.1-3.3,3.4-5.2c1.6-2.6,3.1-5.8,4.4-9.2
		c1.4-3.4,2.6-7.3,3.8-11.2c1.2-4,2.3-8.2,3.4-12.4c2.2-8.5,4.2-17.3,6.4-25.8c1.1-4.2,2.2-8.3,3.5-12.3c0.6-2,1.3-4,2-6l0.3-0.7
		l0.1-0.3l0-0.1l0,0c0,0.1,0-0.1,0-0.1l0.1-0.2c0.2-0.5,0.5-1.1,0.7-1.6c0.4-1.1,1-2.1,1.5-3c2.2-3.8,4.8-6.8,7.3-9
		c2.5-2.2,4.9-3.7,7-4.7c2-1,3.7-1.6,4.9-2C434,138.3,434.6,138.2,434.6,138.2z"/>
</g>
<g>
	<path d="M251.8,286.5c0,0,7.6,2.4,19,5.9c2.8,0.9,5.9,1.8,9.1,2.9c3.2,1,6.6,2.1,10.2,3.1c3.5,1.1,7.1,2.1,10.8,3.2
		c3.7,1,7.3,2.2,11,3.1c0.9,0.2,1.8,0.5,2.7,0.6c0.9,0.2,1.8,0.3,2.7,0.5l1.3,0.2l0.2,0l0.1,0l0,0c-0.3-0.1,0.5,0.2,0.4,0.1l0.4,0.1
		l0.7,0.1l0.7,0.1l0.4,0.1c0.1,0,0.3,0.1,0.5,0.1l2.2,0.6c0.8,0.2,1.3,0.5,1.9,0.7c0.6,0.2,1.2,0.5,1.8,0.7c1.2,0.5,2.4,1,3.5,1.6
		c0.5,0.3,1.1,0.6,1.6,0.9c0.5,0.3,1,0.7,1.5,1c1,0.7,1.9,1.4,2.9,2.2c3.6,3,6.2,6.6,8.3,10c2,3.5,3.5,6.9,4.5,10.1
		c2,6.5,2.3,12.1,2.1,16.2c-0.1,2-0.3,3.6-0.6,4.7c-0.1,0.6-0.2,1-0.3,1.3c-0.1,0.3-0.1,0.4-0.1,0.4l-2.4,0.8c0,0-0.1-0.1-0.4-0.2
		c-0.2-0.2-0.6-0.4-1-0.7c-0.9-0.6-2.1-1.6-3.6-2.7c-3-2.3-6.8-5.6-11-9.2c-2.1-1.8-4.2-3.7-6.4-5.5c-2.2-1.8-4.3-3.6-6.3-5.5
		c-1-0.9-1.9-1.9-2.9-2.7c-0.5-0.5-1-0.9-1.4-1.4c-0.2-0.2-0.5-0.4-0.7-0.6c-0.2-0.2-0.5-0.5-0.7-0.6c-0.2-0.2-0.3-0.3-0.5-0.5
		c-0.1,0-0.1-0.1-0.2-0.1l-0.3-0.2l-0.6-0.4l-0.7-0.4l-0.3-0.2c-0.1,0,0.7,0.2,0.3,0.1l0,0l-0.1,0l-0.2-0.1l-1.4-0.7
		c-1-0.5-1.9-0.9-2.9-1.4c-0.9-0.5-1.9-0.9-2.8-1.4c-1.9-0.9-3.7-1.8-5.5-2.8c-1.8-0.9-3.6-1.9-5.3-2.9c-3.5-1.9-6.9-4-10.1-5.9
		c-3.2-2-6.3-3.9-9.2-5.9c-2.9-1.9-5.6-3.7-8.1-5.4c-2.5-1.7-4.7-3.3-6.7-4.7c-2-1.4-3.7-2.7-5.1-3.7c-2.8-2.1-4.4-3.4-4.4-3.4
		L251.8,286.5z"/>
</g>
<g>
	<path d="M270.6,331.2c0,0,0.3,0.1,1,0.4c0.6,0.3,1.5,0.7,2.7,1.2c1.2,0.6,2.5,1.3,4.1,2.2c1.5,0.9,3.3,2,5.1,3.2
		c1.8,1.3,3.7,2.7,5.7,4.4c2,1.7,4,3.5,6,5.5c1,1,1.9,2.1,2.9,3.2c0.9,1.1,1.9,2.3,2.8,3.5c0.5,0.6,0.9,1.2,1.4,1.9
		c0.4,0.6,0.9,1.3,1.3,1.9c0.9,1.3,1.7,2.7,2.5,4c0.8,1.4,1.5,2.8,2.4,4.2c0.8,1.4,1.6,2.8,2.3,4.3c0.4,0.7,0.7,1.5,1,2.2
		c0.4,0.7,0.7,1.5,0.9,2.2c0.5,1.5,1,3,1.2,4.6c0.6,3.1,0.4,6.1,0,8.9c-0.3,1.4-0.5,2.8-0.9,4.1c-0.4,1.3-0.8,2.5-1.3,3.7
		c-1,2.3-2.2,4.3-3.4,6c-1.3,1.7-2.4,3.1-3.6,4.1c-1.2,1.1-2.2,1.8-2.9,2.3c-0.7,0.5-1.2,0.7-1.2,0.7l-2.4-0.6c0,0-0.3-0.4-0.7-1.2
		c-0.5-0.8-1-1.8-1.6-3.1c-0.6-1.3-1.4-2.8-2.1-4.4c-0.3-0.8-0.7-1.6-1.1-2.5c-0.3-0.8-0.7-1.7-1.1-2.7c-0.4-0.9-0.7-1.8-1-2.8
		c-0.3-0.9-0.7-1.9-1-2.8c-0.6-1.9-1.2-3.8-1.4-5.9c-0.1-1-0.2-2.1-0.2-3.2c0-1.1,0-2.2,0.1-3.4c0-1.2,0-2.4-0.1-3.6
		c-0.1-1.2-0.3-2.4-0.5-3.6c-0.5-2.3-1.2-4.7-2-7c-0.3-1.2-0.8-2.3-1.2-3.5c-0.4-1.1-0.9-2.3-1.4-3.4c-0.9-2.2-1.9-4.3-2.9-6.4
		c-1-2-2.1-3.9-3.1-5.6c-1-1.7-2-3.3-2.9-4.7c-0.9-1.4-1.8-2.6-2.5-3.6c-1.4-2-2.3-3-2.3-3L270.6,331.2z"/>
</g>
</svg>
