<?xml version="1.0" encoding="utf-8"?>
<!-- Generator: Adobe Illustrator 19.2.1, SVG Export Plug-In . SVG Version: 6.00 Build 0)  -->
<svg version="1.1" id="Layer_1" xmlns="http://www.w3.org/2000/svg" xmlns:xlink="http://www.w3.org/1999/xlink" x="0px" y="0px"
	 width="555px" height="250px" viewBox="0 0 555 250" style="enable-background:new 0 0 555 250;" xml:space="preserve">
<style type="text/css">
	.st0{fill:#B7B9BB;}
	.st1{clip-path:url(#SVGID_2_);fill:none;stroke:#231F20;stroke-miterlimit:10;}
	.st2{clip-path:url(#SVGID_2_);fill:#58595B;}
	.st3{clip-path:url(#SVGID_2_);fill:none;stroke:#404041;stroke-width:2;stroke-miterlimit:10;}
	.st4{clip-path:url(#SVGID_2_);fill:#231F20;}
	.st5{fill:#231F20;}
	.st6{font-family:'MyriadPro-Regular';}
	.st7{font-size:3.9062px;}
	.st8{clip-path:url(#SVGID_4_);fill:#808184;}
	.st9{clip-path:url(#SVGID_4_);fill:none;stroke:#929497;stroke-miterlimit:10;}
	.st10{clip-path:url(#SVGID_4_);fill:#929497;}
	.st11{clip-path:url(#SVGID_4_);fill:none;stroke:#929497;stroke-linecap:round;stroke-linejoin:round;stroke-miterlimit:10;}
	.st12{clip-path:url(#SVGID_4_);fill:#231F20;}
	
		.st13{clip-path:url(#SVGID_4_);fill:none;stroke:#231F20;stroke-width:4;stroke-linecap:round;stroke-linejoin:round;stroke-miterlimit:10;}
	.st14{fill:#929497;stroke:#231F20;stroke-width:0.75;stroke-miterlimit:10;}
	.st15{fill:#929497;stroke:#231F20;stroke-linecap:round;stroke-linejoin:round;stroke-miterlimit:10;}
	.st16{fill:#6D6E70;stroke:#929497;stroke-width:2;stroke-linecap:round;stroke-linejoin:round;stroke-miterlimit:10;}
</style>
<rect class="st0" width="555" height="250"/>
<g>
	<defs>
		<rect id="SVGID_1_" width="555" height="250"/>
	</defs>
	<clipPath id="SVGID_2_">
		<use xlink:href="#SVGID_1_"  style="overflow:visible;"/>
	</clipPath>
	<rect class="st1" width="555" height="250"/>
	<path class="st2" d="M529.3,234.9c0,2-2.7,3.7-6.1,3.7H26.9c-3.4,0-6.1-1.6-6.1-3.7V15.1c0-2,2.7-3.7,6.1-3.7h496.3
		c3.4,0,6.1,1.6,6.1,3.7V234.9z"/>
	<path class="st3" d="M529.3,234.9c0,2-2.7,3.7-6.1,3.7H26.9c-3.4,0-6.1-1.6-6.1-3.7V15.1c0-2,2.7-3.7,6.1-3.7h496.3
		c3.4,0,6.1,1.6,6.1,3.7V234.9z"/>
	<rect x="31.4" y="18.2" class="st4" width="487.3" height="210.3"/>
	<rect x="31.4" y="18.2" class="st3" width="487.3" height="210.3"/>
</g>
<text transform="matrix(1.665 0 0 1 99.1846 55.0129)"><tspan x="0" y="0" class="st5 st6 st7">sj</tspan><tspan x="2.5" y="0" class="st5 st6 st7">f</tspan><tspan x="3.6" y="0" class="st5 st6 st7">oisoi&lt;js</tspan><tspan x="16.1" y="0" class="st5 st6 st7">c</tspan><tspan x="17.8" y="0" class="st5 st6 st7">f</tspan><tspan x="18.9" y="0" class="st5 st6 st7">e</tspan></text>
<g>
	<defs>
		<rect id="SVGID_3_" width="555" height="250"/>
	</defs>
	<clipPath id="SVGID_4_">
		<use xlink:href="#SVGID_3_"  style="overflow:visible;"/>
	</clipPath>
	<path class="st8" d="M503.5,208.7c0,2.2-2.9,3.9-6.5,3.9H53.1c-3.6,0-6.5-1.7-6.5-3.9v-181c0-2.2,2.9-3.9,6.5-3.9H497
		c3.6,0,6.5,1.7,6.5,3.9V208.7z"/>
	<path class="st9" d="M503.5,208.7c0,2.2-2.9,3.9-6.5,3.9H53.1c-3.6,0-6.5-1.7-6.5-3.9v-181c0-2.2,2.9-3.9,6.5-3.9H497
		c3.6,0,6.5,1.7,6.5,3.9V208.7z"/>
	<path class="st10" d="M503.5,208.7v-24.1c-1.1-57.6,0-62.8,0-62.8C476.4,173.2,46.6,163,46.6,163s1.1,12.1,0,46.3H181
		C294.9,209.3,503.5,208.7,503.5,208.7"/>
	<path class="st11" d="M503.5,208.7v-24.1c-1.1-57.6,0-62.8,0-62.8C476.4,173.2,46.6,163,46.6,163s1.1,12.1,0,46.3H181
		C294.9,209.3,503.5,208.7,503.5,208.7z"/>
	<path class="st10" d="M503.5,197.3c0-1.1-2.9-2-6.5-2H53.1c-3.6,0-6.5,0.9-6.5,2v13.3c0,1.1,2.9,2,6.5,2H497c3.6,0,6.5-0.9,6.5-2
		V197.3z"/>
	<path class="st11" d="M503.5,197.3c0-1.1-2.9-2-6.5-2H53.1c-3.6,0-6.5,0.9-6.5,2v13.3c0,1.1,2.9,2,6.5,2H497c3.6,0,6.5-0.9,6.5-2
		V197.3z"/>
	<line class="st12" x1="289.4" y1="244.8" x2="264.5" y2="244.8"/>
	<line class="st13" x1="289.4" y1="244.8" x2="264.5" y2="244.8"/>
</g>
<g>
	<circle class="st14" cx="542" cy="227.1" r="7.7"/>
	<circle class="st15" cx="542" cy="227.1" r="3.4"/>
	<rect x="541.1" y="223.2" class="st16" width="1.7" height="2.9"/>
</g>
<line class="st15" x1="542" y1="223.2" x2="542" y2="226.1"/>
</svg>
